<svg viewBox="0 0 1080 1080" fill="none" xmlns="http://www.w3.org/2000/svg">      <defs>  <filter id="filter" x="-20%" y="-20%" width="140%" height="140%" filterUnits="objectBoundingBox" primitiveUnits="userSpaceOnUse" color-interpolation-filters="linearRGB">    <feMorphology operator="dilate" radius="20 20" in="SourceAlpha" result="morphology"/>    <feFlood flood-color="#ffffff" flood-opacity="1" result="flood"/>    <feComposite in="flood" in2="morphology" operator="in" result="composite"/>    <feMerge result="merge">          <feMergeNode in="composite" result="mergeNode"/>      <feMergeNode in="SourceGraphic" result="mergeNode1"/>      </feMerge>  </filter></defs>      <g id="notion-avatar" filter="url(#filter)">        <g id="notion-avatar-face" fill="#ffffff">      <!--?xml version="1.0" encoding="UTF-8"?-->    <title>Face/ 9</title>    <g id="Face/-9" stroke="none" stroke-width="1" fill-rule="evenodd" stroke-linecap="round" stroke-linejoin="round">        <path d="M532,379 C664.54834,379 772,486.45166 772,619 C772,751.54834 704.54834,919 592,919 C506.683174,919 378.324367,822.776611 321.205121,718.475443 C318.188736,718.821948 315.115161,719 312,719 C267.81722,719 232,683.18278 232,639 C232,599.134956 261.158843,566.080325 299.312086,560.00055 C325.599297,455.979213 419.809919,379 532,379 Z M295.858895,624.545187 L304.141105,655.454813" id="Path" stroke="#000000" stroke-width="24"/>    </g>    </g><g id="notion-avatar-nose">      <g id="Nose/ 13"><path id="Path" fill-rule="evenodd" clip-rule="evenodd" d="M644 560C644 560 665.892 613.522 673 623C676 627 693.906 641.256 692.774 653.58C690.065 683.076 644 684.359 644 684.359C644 684.359 700 689.489 700 653.58C700 637.222 687 632 674 620C666.959 613.5 644 560 644 560Z" fill="black" stroke="black" stroke-width="6" stroke-linecap="round" stroke-linejoin="round"/></g>    </g><g id="notion-avatar-mouth">      <g id="Mouth/ 11"><path id="Path" fill-rule="evenodd" clip-rule="evenodd" d="M529 741C529 741 595 755 627 755C659 755 689 745.528 689 745.528C689 745.528 688 814 618 814C548 814 529 741 529 741Z" stroke="black" stroke-width="16" stroke-linecap="round" stroke-linejoin="round"/></g>    </g><g id="notion-avatar-eyes">      <!--?xml version="1.0" encoding="UTF-8"?-->    <title>Eyes/ 7</title>    <g id="Eyes/-7" stroke="none" stroke-width="1" fill="none" fill-rule="evenodd">        <path d="M570,516 C578.836556,516 586,526.745166 586,540 C586,553.254834 578.836556,564 570,564 C561.163444,564 554,553.254834 554,540 C554,526.745166 561.163444,516 570,516 Z M708,516 C716.836556,516 724,526.745166 724,540 C724,553.254834 716.836556,564 708,564 C699.163444,564 692,553.254834 692,540 C692,526.745166 699.163444,516 708,516 Z M568,527 C564.686292,527 562,529.686292 562,533 C562,536.313708 564.686292,539 568,539 C571.313708,539 574,536.313708 574,533 C574,529.686292 571.313708,527 568,527 Z M706,527 C702.686292,527 700,529.686292 700,533 C700,536.313708 702.686292,539 706,539 C709.313708,539 712,536.313708 712,533 C712,529.686292 709.313708,527 706,527 Z" id="Combined-Shape" fill="#000000"/>    </g>    </g><g id="notion-avatar-eyebrows">      <!--?xml version="1.0" encoding="UTF-8"?-->    <title>Eyebrows/ 6</title>    <g id="Eyebrows/-6" stroke="none" stroke-width="1" fill="none" fill-rule="evenodd" stroke-linecap="round" stroke-linejoin="round">        <path d="M620,495.140162 C589.850248,491.823271 565.234864,491.823271 546.153846,495.140162 C527.072829,498.457053 511.688213,505.410333 500,516 C517.257672,497.488903 532.642287,487.058984 546.153846,484.710243 C559.665405,482.361502 584.280789,485.838142 620,495.140162 Z M658,495.140162 C693.719211,485.838142 718.334595,482.361502 731.846154,484.710243 C745.357713,487.058984 760.742328,497.488903 778,516 C766.311787,505.410333 750.927171,498.457053 731.846154,495.140162 C712.765136,491.823271 688.149752,491.823271 658,495.140162 Z" id="Combined-Shape" stroke="#000000" stroke-width="8" fill="#000000"/>    </g>    </g><g id="notion-avatar-glasses">      <!--?xml version="1.0" encoding="UTF-8"?-->    <title>Glasses/ 0</title>    <g id="Glasses/-0" stroke="none" stroke-width="1" fill="none" fill-rule="evenodd"/>    </g><g id="notion-avatar-hair">      <!--?xml version="1.0" encoding="UTF-8"?-->    <title>Hairstyle/ 14</title>    <g id="Hairstyle/-14" stroke="none" stroke-width="1" fill="none" fill-rule="evenodd" stroke-linecap="round" stroke-linejoin="round">        <path d="M680,270 L679.806266,273.160795 L679.609741,276.222241 C676.345951,325.933738 670.441789,361.331655 661.897254,382.415992 L665,379 C669.818582,386.792186 673.818582,395.125519 677,404 C680.036808,412.471095 682.300877,421.360277 683.792209,430.667546 L684,432 L647.608374,403.073582 L646.227511,404.133406 C623.904333,421.217179 612.675037,427.272787 580,434 C546,441 506.08243,434.920906 459.455985,426.268797 L451.257015,424.759716 L448.245051,424.21248 L445.41424,423.708943 C415.372753,418.440663 400.260881,418.526982 379.295767,445.522372 C355.591535,476.044745 392.364515,499.14665 392.364515,516.739062 C392.364515,528.232771 383.924355,572.72458 367.044035,650.214489 L366,655 L328.116663,564.824988 L287.145773,564.824988 C271.780496,507.747385 268.106191,468.653136 276.122857,447.542242 L276.870382,445.586062 L277.654986,443.563497 C290.903153,409.703973 325.666429,336.148175 426,325 L435.080765,323.995517 C514.214015,315.281244 517.115218,315.984459 542.209426,309.027564 L547.418732,306.77818 C558.682042,301.897336 567.859264,297.801723 574.951761,294.49076 L579.663186,292.275583 C592.167897,286.37506 607.613502,278.949866 626,270 L613.81,288.755 L680,270 Z" id="Path" stroke="#000000" stroke-width="12" fill="#000000"/>    </g>    </g><g id="notion-avatar-accessories">      <!--?xml version="1.0" encoding="UTF-8"?-->    <title>Accessories/ 0</title>    <g id="Accessories/-0" stroke="none" stroke-width="1" fill="none" fill-rule="evenodd"/>    </g><g id="notion-avatar-details">      <!--?xml version="1.0" encoding="UTF-8"?-->    <title>Details/ 0</title>    <g id="Details/-0" stroke="none" stroke-width="1" fill="none" fill-rule="evenodd"/>    </g><g id="notion-avatar-beard">      <g id="Beard/ 13"><g id="Shape"><path fill-rule="evenodd" clip-rule="evenodd" d="M369.784 644C393.129 725.816 419.796 770.483 449.784 778C494.767 789.275 498.784 731 532.784 712C566.784 693 623.784 715 659.784 715C695.784 715 758.703 700.707 771.784 705C784.866 709.293 783.106 837.47 724.784 899C693.941 926.615 681.399 926.571 623.784 927C566.17 927.429 482.098 914.714 411.784 857C364.909 818.524 347.575 747.524 359.784 644H369.784ZM550.784 724C533.514 736.44 501.515 784.317 518.784 798C536.054 811.683 595.517 796 633.784 796C672.052 796 713.028 804.22 718.784 798C724.541 791.78 721.784 743 705.784 731C689.784 719 656.694 736 638.784 736C620.875 736 568.054 711.56 550.784 724Z" fill="black"/><path d="M369.784 644L375.554 642.354C374.819 639.777 372.464 638 369.784 638V644ZM449.784 778L448.325 783.82L449.784 778ZM724.784 899L728.786 903.47C728.909 903.361 729.026 903.247 729.139 903.128L724.784 899ZM411.784 857L407.977 861.638L411.784 857ZM359.784 644V638C356.742 638 354.182 640.276 353.826 643.297L359.784 644ZM638.784 736V730V736ZM364.014 645.646C375.752 686.782 388.426 718.965 402.141 741.938C415.766 764.76 431.014 779.481 448.325 783.82L451.243 772.18C438.566 769.002 425.486 757.631 412.445 735.787C399.493 714.093 387.162 683.035 375.554 642.354L364.014 645.646ZM448.325 783.82C460.941 786.982 471.245 785.335 479.948 780.313C488.362 775.457 494.762 767.729 500.318 759.795C503.115 755.8 505.824 751.561 508.477 747.469C511.16 743.33 513.814 739.294 516.629 735.471C522.274 727.806 528.294 721.383 535.711 717.238L529.857 706.762C520.275 712.117 513.043 720.104 506.966 728.356C503.92 732.493 501.096 736.793 498.407 740.942C495.687 745.138 493.129 749.14 490.488 752.912C485.167 760.512 480.002 766.426 473.95 769.92C468.185 773.246 461.119 774.656 451.243 772.18L448.325 783.82ZM535.711 717.238C550.806 708.802 571.717 709.194 594.726 712.32C606.139 713.871 617.434 715.984 628.578 717.783C639.54 719.552 650.264 721 659.784 721V709C651.304 709 641.403 707.698 630.49 705.936C619.76 704.204 607.929 702.004 596.342 700.43C573.352 697.306 548.762 696.198 529.857 706.762L535.711 717.238ZM659.784 721C678.302 721 703.533 717.343 725.204 714.333C736.165 712.811 746.231 711.449 754.358 710.728C758.42 710.368 761.88 710.179 764.653 710.197C767.563 710.216 769.203 710.468 769.913 710.701L773.655 699.299C771.096 698.459 767.907 698.218 764.732 698.197C761.419 698.176 757.536 698.399 753.298 698.775C744.823 699.527 734.457 700.933 723.553 702.447C701.495 705.511 677.266 709 659.784 709V721ZM769.913 710.701C768.666 710.292 768.461 709.529 768.866 710.225C769.19 710.784 769.647 711.855 770.12 713.609C771.058 717.082 771.8 722.222 772.17 728.808C772.907 741.911 772.124 759.84 769.128 779.638C763.105 819.439 748.347 865.419 720.43 894.872L729.139 903.128C759.543 871.051 774.827 822.177 780.993 781.434C784.092 760.96 784.942 742.194 784.151 728.134C783.758 721.138 782.947 715.079 781.705 710.48C781.089 708.198 780.299 706.016 779.24 704.195C778.262 702.512 776.537 700.245 773.655 699.299L769.913 710.701ZM720.782 894.53C705.688 908.044 695.712 914.212 682.889 917.369C669.549 920.653 652.868 920.783 623.74 921L623.829 933C652.315 932.788 670.713 932.725 685.758 929.021C701.321 925.189 713.038 917.571 728.786 903.47L720.782 894.53ZM623.74 921C566.901 921.424 484.417 908.856 415.591 852.362L407.977 861.638C479.778 920.573 565.438 933.435 623.829 933L623.74 921ZM415.591 852.362C371.172 815.902 353.6 747.662 365.743 644.703L353.826 643.297C341.55 747.385 358.645 821.145 407.977 861.638L415.591 852.362ZM359.784 650H369.784V638H359.784V650ZM547.277 719.132C537.641 726.073 524.784 742.006 516.52 757.744C512.364 765.658 509.088 774.041 508.118 781.656C507.155 789.221 508.365 797.4 515.058 802.703L522.51 793.297C520.568 791.759 519.303 788.821 520.022 783.172C520.735 777.574 523.3 770.644 527.144 763.323C534.88 748.592 546.658 734.367 554.291 728.868L547.277 719.132ZM515.058 802.703C520.925 807.351 529.516 808.986 538.341 809.452C547.422 809.931 558.047 809.212 569.015 808.101C591.4 805.832 615.046 802 633.784 802V790C614.255 790 589.035 794.01 567.805 796.162C556.965 797.26 547.094 797.897 538.973 797.468C530.596 797.026 525.278 795.49 522.51 793.297L515.058 802.703ZM633.784 802C652.602 802 672.053 804.02 687.991 805.313C695.846 805.95 702.985 806.421 708.575 806.31C711.362 806.255 714.013 806.053 716.294 805.569C718.37 805.129 721.171 804.255 723.188 802.076L714.381 793.924C714.959 793.3 715.22 793.53 713.803 793.83C712.592 794.088 710.798 794.264 708.337 794.313C703.429 794.41 696.852 793.992 688.961 793.352C673.405 792.09 653.234 790 633.784 790V802ZM723.188 802.076C725.045 800.068 725.902 797.28 726.385 795.159C726.93 792.763 727.262 789.937 727.423 786.915C727.747 780.849 727.416 773.411 726.388 765.858C725.361 758.314 723.609 750.426 720.983 743.523C718.417 736.777 714.734 730.212 709.384 726.2L702.184 735.8C704.835 737.788 707.496 741.821 709.767 747.79C711.978 753.603 713.555 760.549 714.498 767.477C715.439 774.396 715.718 781.07 715.44 786.275C715.3 788.888 715.028 790.987 714.684 792.496C714.278 794.28 713.962 794.377 714.381 793.924L723.188 802.076ZM709.384 726.2C704.006 722.166 697.527 720.825 691.184 720.72C684.849 720.614 678.112 721.733 671.712 723.14C665.458 724.515 658.677 726.375 653.161 727.696C647.301 729.1 642.485 730 638.784 730V742C644.038 742 650.074 740.775 655.956 739.366C662.182 737.875 668.031 736.235 674.288 734.86C680.399 733.517 686.055 732.636 690.984 732.718C695.905 732.8 699.563 733.834 702.184 735.8L709.384 726.2ZM638.784 730C635.24 730 629.355 728.719 621.476 726.584C614.067 724.577 604.792 721.789 596.047 719.526C587.16 717.227 577.948 715.224 569.725 714.642C561.755 714.078 553.384 714.733 547.277 719.132L554.291 728.868C556.819 727.047 561.527 726.092 568.878 726.612C575.975 727.114 584.326 728.889 593.041 731.144C601.899 733.436 610.267 735.98 618.338 738.167C625.94 740.226 633.374 742 638.784 742V730Z" fill="black"/></g></g>    </g>      </g>      </svg>